<svg data-v-423bf9ae="" xmlns="http://www.w3.org/2000/svg" viewBox="0 0 342.33602465332217 60" class="font"><!----><!----><!----><g data-v-423bf9ae="" id="e92b9dcd-f1cb-48cb-bcad-d9a1a193a925" fill="white" transform="matrix(4.800000366210965,0,0,4.800000366210965,-3.3599987742815074,-75.07200689865168)"><path d="M5.38 27.44L5.10 28L0.84 28L0.84 27.57L2.16 26.53L2.16 18.05L0.70 17.56L0.98 17.00L5.24 17.00L5.24 17.43L3.91 18.47L3.91 26.94L5.38 27.44ZM15.79 27.45L15.51 28.01L12.85 28.01L12.85 23.30Q12.85 22.53 12.61 22.22Q12.38 21.91 11.76 21.91L11.76 21.91Q11.30 21.91 10.84 22.08Q10.39 22.25 9.77 22.72L9.77 22.72L9.77 26.96L11.03 27.45L10.75 28.01L6.85 28.01L6.85 27.58L8.09 26.60L8.09 22.64L6.85 21.91L6.85 21.48L9.24 20.30L9.70 22.12L11.69 20.54Q11.98 20.43 12.46 20.43L12.46 20.43Q13.41 20.43 13.97 21.01Q14.53 21.59 14.53 22.58L14.53 22.58L14.53 26.95L15.79 27.45ZM21.95 15.64Q22.34 15.64 22.84 15.71Q23.34 15.79 23.55 15.88L23.55 15.88L23.55 18.03L23.02 18.03Q22.67 17.47 22.16 17.14Q21.66 16.81 21.14 16.81L21.14 16.81Q20.50 16.81 20.17 17.39Q19.84 17.96 19.84 19.07L19.84 19.07L19.84 20.99L22.36 20.99L22.36 21.56L19.84 21.56L19.84 26.84L21.80 27.44L21.52 28L16.91 28L16.91 27.57L18.16 26.59L18.16 21.56L16.49 21.56L16.49 20.99L18.16 20.99L18.16 19.74Q18.16 18.66 18.75 17.71Q19.33 16.76 20.22 16.20Q21.11 15.64 21.95 15.64L21.95 15.64ZM27.34 20.43Q28.27 20.43 29.00 20.91Q29.74 21.39 30.15 22.22Q30.56 23.04 30.56 24.04L30.56 24.04Q30.56 25.12 29.90 26.06Q29.25 27.01 28.26 27.57Q27.27 28.14 26.35 28.14L26.35 28.14Q25.42 28.14 24.69 27.66Q23.95 27.17 23.54 26.35Q23.13 25.52 23.13 24.53L23.13 24.53Q23.13 23.45 23.79 22.50Q24.44 21.56 25.43 20.99Q26.42 20.43 27.34 20.43L27.34 20.43ZM26.53 21.60Q24.95 21.60 24.95 23.86L24.95 23.86Q24.95 25.19 25.52 26.07Q26.10 26.96 27.16 26.96L27.16 26.96Q28.74 26.96 28.74 24.70L28.74 24.70Q28.74 23.38 28.17 22.49Q27.59 21.60 26.53 21.60L26.53 21.60ZM41.41 16.74L41.41 19.96L40.99 20.10L39.33 17.63L35.46 17.63L35.46 22.06L37.66 22.06L38.68 20.27L39.12 20.27L39.12 24.11L38.56 24.39L37.70 22.69L35.45 22.69L35.45 26.84L37.62 27.44L37.34 28L32.38 28L32.38 27.57L33.70 26.53L33.70 18.05L32.24 17.56L32.52 17.00L40.64 17.00L41.41 16.74ZM47.05 27.44L46.77 28L42.87 28L42.87 27.57L44.11 26.59L44.11 17.98L42.87 17.11L42.87 16.67L45.26 15.78L45.79 15.78L45.79 26.95L47.05 27.44ZM56.84 27.44L56.56 28L53.90 28L53.90 26.54L52.12 28.03Q51.83 28.14 51.35 28.14L51.35 28.14Q50.40 28.14 49.84 27.56Q49.28 26.98 49.28 25.98L49.28 25.98L49.28 22.64L48.03 21.91L48.03 21.48L50.43 20.30L50.96 20.30L50.96 25.28Q50.96 26.05 51.20 26.36Q51.44 26.67 52.05 26.67L52.05 26.67Q52.49 26.67 52.91 26.51Q53.33 26.35 53.90 25.87L53.90 25.87L53.90 22.64L52.65 21.91L52.65 21.48L55.05 20.30L55.58 20.30L55.58 26.95L56.84 27.44ZM62.61 26.49Q62.61 26.10 62.17 25.77Q61.74 25.44 60.84 24.98L60.84 24.98Q60.12 24.60 59.67 24.32Q59.22 24.04 58.91 23.67Q58.59 23.30 58.59 22.86L58.59 22.86Q58.59 22.36 59.01 21.78Q59.43 21.21 60.05 20.82Q60.66 20.43 61.19 20.43L61.19 20.43Q61.84 20.43 62.69 20.59Q63.53 20.75 63.91 20.94L63.91 20.94L63.91 23.10L63.38 23.10Q62.93 22.23 62.34 21.75Q61.75 21.27 61.14 21.27L61.14 21.27Q60.70 21.27 60.44 21.50Q60.17 21.73 60.17 22.08L60.17 22.08Q60.17 22.51 60.63 22.86Q61.08 23.20 62.01 23.66L62.01 23.66Q62.72 24.02 63.15 24.29Q63.59 24.56 63.89 24.91Q64.19 25.27 64.19 25.70L64.19 25.70Q64.19 26.22 63.75 26.79Q63.31 27.36 62.67 27.75Q62.03 28.14 61.50 28.14L61.50 28.14Q60.82 28.14 59.87 27.98Q58.93 27.82 58.52 27.62L58.52 27.62L58.52 25.47L59.05 25.47Q59.54 26.33 60.21 26.82Q60.89 27.30 61.57 27.30L61.57 27.30Q62.03 27.30 62.32 27.06Q62.61 26.82 62.61 26.49L62.61 26.49ZM70.43 26.49Q70.43 26.10 70 25.77Q69.57 25.44 68.67 24.98L68.67 24.98Q67.94 24.60 67.49 24.32Q67.05 24.04 66.73 23.67Q66.42 23.30 66.42 22.86L66.42 22.86Q66.42 22.36 66.84 21.78Q67.26 21.21 67.87 20.82Q68.49 20.43 69.02 20.43L69.02 20.43Q69.66 20.43 70.51 20.59Q71.36 20.75 71.74 20.94L71.74 20.94L71.74 23.10L71.20 23.10Q70.76 22.23 70.17 21.75Q69.58 21.27 68.96 21.27L68.96 21.27Q68.53 21.27 68.26 21.50Q68.00 21.73 68.00 22.08L68.00 22.08Q68.00 22.51 68.45 22.86Q68.91 23.20 69.83 23.66L69.83 23.66Q70.55 24.02 70.98 24.29Q71.41 24.56 71.72 24.91Q72.02 25.27 72.02 25.70L72.02 25.70Q72.02 26.22 71.58 26.79Q71.13 27.36 70.50 27.75Q69.86 28.14 69.33 28.14L69.33 28.14Q68.64 28.14 67.70 27.98Q66.75 27.82 66.35 27.62L66.35 27.62L66.35 25.47L66.88 25.47Q67.37 26.33 68.04 26.82Q68.71 27.30 69.40 27.30L69.40 27.30Q69.86 27.30 70.15 27.06Q70.43 26.82 70.43 26.49L70.43 26.49Z"></path></g><!----><!----></svg>