<?xml version="1.0" standalone="no"?>
<!DOCTYPE svg PUBLIC "-//W3C//DTD SVG 20010904//EN"
 "http://www.w3.org/TR/2001/REC-SVG-20010904/DTD/svg10.dtd">
<svg version="1.0" xmlns="http://www.w3.org/2000/svg"
 width="5472.000000pt" height="5472.000000pt" viewBox="0 0 5472.000000 5472.000000"
 preserveAspectRatio="xMidYMid meet">
<metadata>
Created by potrace 1.14, written by Peter Selinger 2001-2017
</metadata>
<g transform="translate(0.000000,5472.000000) scale(0.100000,-0.100000)"
fill="#000000" stroke="none">
<path d="M16139 32146 c-2 -2 -29 -7 -59 -10 -65 -8 -165 -24 -200 -32 -14 -3
-34 -7 -45 -9 -57 -10 -224 -64 -330 -107 -66 -26 -124 -49 -130 -51 -5 -1
-12 -4 -15 -7 -8 -8 -84 -43 -100 -46 -8 -2 -16 -8 -18 -13 -2 -6 -12 -11 -22
-11 -10 0 -20 -3 -22 -7 -1 -5 -23 -18 -48 -31 -134 -69 -395 -247 -539 -367
-106 -89 -307 -286 -386 -379 -28 -32 -55 -64 -61 -70 -5 -6 -41 -51 -79 -101
-37 -49 -72 -91 -76 -93 -5 -2 -9 -8 -9 -14 0 -11 -61 -101 -72 -106 -5 -2 -8
-10 -8 -18 0 -8 -4 -14 -10 -14 -5 0 -10 -6 -10 -13 0 -7 -10 -24 -22 -37 -13
-14 -23 -27 -22 -30 1 -5 -6 -17 -43 -77 -32 -52 -147 -271 -148 -283 0 -3 -7
-16 -15 -30 -8 -14 -15 -30 -16 -36 -1 -5 -11 -30 -23 -54 -11 -24 -21 -48
-21 -53 0 -5 -6 -23 -14 -40 -17 -38 -60 -174 -76 -237 -6 -25 -14 -52 -17
-60 -4 -8 -7 -23 -8 -32 -2 -10 -3 -19 -5 -20 -1 -2 -3 -10 -5 -18 -1 -8 -7
-40 -14 -70 -11 -58 -15 -82 -27 -165 -3 -27 -8 -59 -10 -70 -11 -61 -17 -276
-19 -750 -1 -291 -3 -532 -4 -535 0 -3 -287 -5 -636 -5 -349 1 -636 -2 -636
-5 -1 -3 -2 -99 -3 -215 l-1 -210 640 -5 640 -5 0 -1925 c1 -1719 -1 -1927
-15 -1941 -8 -8 -35 -30 -60 -49 -25 -19 -47 -37 -50 -40 -3 -4 -32 -26 -65
-51 -33 -24 -62 -47 -65 -50 -5 -6 -100 -80 -216 -169 -28 -21 -57 -44 -65
-52 -8 -7 -41 -33 -74 -58 -33 -25 -62 -47 -65 -51 -3 -3 -23 -18 -45 -35 -22
-16 -45 -36 -52 -44 -7 -8 -13 -12 -13 -7 0 4 -8 -1 -18 -10 -37 -36 -82 -73
-88 -73 -4 0 -20 -12 -38 -27 l-31 -28 2 -150 c1 -82 2 -157 2 -165 1 -13 204
-15 1766 -14 971 0 1767 3 1769 5 2 2 51 99 110 216 113 227 111 216 52 227
-14 3 -170 50 -251 76 -33 11 -114 36 -180 56 -97 29 -257 77 -400 122 -11 3
-24 7 -30 8 -35 9 -193 58 -210 64 -37 15 -159 52 -177 53 -10 1 -18 5 -18 9
0 4 -8 8 -17 8 -14 0 -46 9 -103 28 -8 3 -24 7 -35 9 -10 2 -22 7 -25 12 -3 5
-5 917 -5 2028 l0 2018 968 3 967 2 -2 83 c-1 45 1 88 5 95 5 6 5 12 0 12 -10
0 -9 52 1 68 4 7 4 12 -1 12 -10 0 -10 91 0 107 4 6 3 15 -3 18 -8 5 -7 12 2
23 10 12 10 14 1 8 -7 -4 -13 -3 -13 1 0 5 -433 9 -962 9 l-963 0 1 819 c1
720 5 960 18 1095 9 87 17 149 21 170 3 14 7 42 10 65 4 22 13 68 20 101 8 34
16 73 19 85 10 51 51 174 58 177 5 2 6 7 3 12 -11 18 94 231 162 328 50 70
128 153 188 199 64 48 200 114 266 128 9 2 34 7 55 11 49 10 304 11 364 2 84
-13 155 -30 168 -40 6 -6 12 -8 12 -4 0 8 136 -42 201 -75 31 -16 60 -29 63
-29 4 0 26 -13 49 -28 23 -15 54 -34 70 -41 15 -8 27 -18 27 -23 0 -4 6 -8 13
-8 7 0 23 -9 35 -20 12 -11 24 -20 27 -20 7 0 133 -97 161 -125 12 -11 39 -36
60 -56 55 -51 164 -168 196 -211 15 -20 33 -42 40 -50 7 -8 18 -21 23 -30 33
-51 99 -145 110 -153 9 -8 353 -13 398 -6 4 0 7 372 7 826 l0 824 -94 30 c-52
17 -107 33 -123 36 -15 2 -39 7 -53 11 -29 7 -36 8 -105 19 -27 4 -54 10 -60
13 -5 3 -23 7 -40 9 -16 1 -46 5 -65 9 -19 3 -53 8 -75 10 -22 3 -53 6 -70 8
-16 2 -61 7 -100 11 -38 4 -83 9 -100 11 -38 6 -501 15 -506 10z"/>
<path d="M34166 32034 c-17 -6 -69 -26 -116 -43 -47 -18 -89 -34 -95 -35 -5
-1 -19 -7 -30 -13 -16 -8 -60 -22 -85 -27 -3 -1 -12 -6 -20 -11 -8 -5 -20 -10
-25 -11 -11 -2 -195 -68 -230 -83 -31 -14 -89 -35 -100 -38 -15 -3 -147 -52
-170 -63 -11 -5 -90 -34 -175 -65 -85 -31 -164 -61 -175 -66 -12 -6 -27 -11
-35 -13 -8 -1 -26 -8 -40 -14 -33 -14 -142 -55 -210 -78 -30 -10 -58 -23 -62
-29 -4 -5 -8 -7 -8 -3 0 3 -35 -7 -77 -24 -43 -16 -82 -31 -88 -33 -5 -1 -24
-7 -40 -14 l-30 -11 0 -168 0 -167 45 -33 c25 -18 53 -39 62 -46 9 -8 27 -20
40 -27 13 -6 25 -15 28 -18 3 -4 43 -33 90 -66 47 -32 87 -61 90 -64 6 -7 40
-29 60 -38 13 -6 23 -14 72 -55 12 -10 24 -18 28 -18 4 0 20 -11 36 -25 16
-14 34 -25 41 -25 6 0 13 -4 15 -8 2 -5 35 -30 73 -57 39 -26 72 -52 73 -57 2
-4 8 -8 13 -8 9 0 78 -47 116 -80 7 -5 16 -10 21 -10 5 0 18 -10 29 -22 20
-23 20 -31 19 -3319 -1 -3225 -1 -3297 -20 -3318 -11 -12 -25 -21 -32 -21 -7
0 -17 -6 -21 -13 -6 -10 -176 -147 -392 -316 -123 -96 -207 -165 -213 -174 -4
-7 -8 -8 -8 -3 0 6 -15 -4 -32 -20 -18 -17 -53 -46 -78 -64 -25 -19 -47 -37
-50 -40 -5 -5 -77 -60 -94 -72 -11 -7 -17 -337 -6 -339 7 -1 2961 -1 2977 0 7
1 50 76 95 169 46 92 88 170 93 174 6 4 7 8 3 8 -4 0 1 16 13 36 20 36 19 46
-4 50 -7 1 -32 11 -57 22 -25 11 -153 62 -285 112 -132 50 -259 100 -282 111
-24 10 -47 19 -53 19 -6 0 -18 4 -28 9 -9 5 -67 29 -127 52 l-110 42 0 4275
c0 2350 -3 4279 -7 4284 -7 13 -138 18 -138 6 0 -5 -5 -6 -12 -2 -17 11 -101
12 -115 1 -7 -5 -13 -5 -13 -1 0 13 -108 11 -144 -2z"/>
<path d="M30930 31203 l-275 -95 -3121 -1 -3122 -1 -58 -120 c-33 -67 -61
-123 -64 -126 -5 -5 -32 -60 -35 -70 0 -3 -13 -28 -28 -57 -15 -29 -23 -55
-17 -58 5 -3 51 -19 102 -36 51 -16 100 -33 108 -36 18 -7 14 -6 69 -22 24 -7
51 -16 60 -21 22 -11 224 -78 291 -97 30 -8 60 -18 65 -23 8 -6 36 -15 75 -25
3 0 37 -12 75 -25 39 -13 73 -25 78 -26 4 -1 8 -2 10 -3 1 -1 40 -15 87 -30
l85 -29 -1 -36 c-1 -20 2 -36 7 -36 5 0 6 -7 3 -15 -10 -24 -10 -115 -1 -115
4 0 5 -5 2 -11 -9 -14 -13 -69 -5 -69 3 0 6 -9 6 -20 0 -11 -3 -20 -6 -20 -3
0 -5 -16 -5 -35 0 -19 3 -35 7 -35 4 0 5 -7 2 -15 -10 -24 -10 -115 -1 -115 4
0 5 -5 2 -11 -9 -14 -13 -69 -5 -69 3 0 6 -9 6 -20 0 -11 -3 -20 -6 -20 -3 0
-5 -16 -5 -35 0 -19 3 -35 7 -35 4 0 5 -7 2 -15 -10 -24 -10 -115 -1 -115 4 0
5 -5 2 -11 -9 -14 -13 -69 -5 -69 3 0 6 -9 6 -20 0 -11 -3 -20 -6 -20 -3 0 -5
-16 -5 -35 0 -19 3 -35 7 -35 4 0 5 -7 2 -15 -8 -20 -11 -115 -4 -115 3 0 6
-9 6 -20 0 -11 -3 -20 -6 -20 -3 0 -5 -16 -5 -35 0 -19 3 -35 7 -35 4 0 5 -7
2 -15 -8 -20 -11 -115 -4 -115 3 0 6 -9 6 -20 0 -11 -3 -20 -6 -20 -3 0 -5
-16 -5 -35 0 -19 3 -35 7 -35 4 0 5 -7 2 -15 -8 -20 -11 -115 -4 -115 3 0 6
-9 6 -20 0 -11 -3 -20 -6 -20 -3 0 -5 -16 -5 -35 0 -19 4 -35 8 -35 5 0 5 -5
2 -10 -10 -16 -12 -111 -3 -116 4 -3 5 -13 0 -22 -9 -21 -9 -53 1 -70 5 -6 4
-12 0 -12 -9 0 -10 -46 -1 -56 3 -3 3 -17 -1 -32 -4 -15 -4 -42 0 -59 4 -18 4
-33 0 -33 -3 0 -6 -16 -6 -35 0 -19 3 -35 7 -35 4 0 5 -7 2 -15 -8 -20 -11
-115 -4 -115 3 0 6 -9 6 -20 0 -11 -3 -20 -6 -20 -3 0 -5 -16 -5 -35 0 -19 3
-35 7 -35 4 0 5 -7 2 -15 -8 -20 -11 -115 -4 -115 3 0 6 -9 6 -20 0 -11 -3
-20 -6 -20 -3 0 -5 -16 -5 -35 0 -19 4 -35 8 -35 5 0 5 -5 2 -10 -10 -16 -12
-111 -3 -116 4 -3 5 -13 0 -22 -9 -21 -9 -53 1 -70 5 -6 4 -12 0 -12 -9 0 -10
-46 -1 -56 3 -3 3 -17 -1 -32 -4 -15 -4 -42 0 -59 4 -18 4 -33 0 -33 -3 0 -6
-16 -6 -35 0 -19 3 -35 7 -35 4 0 5 -7 2 -15 -8 -20 -11 -115 -4 -115 3 0 6
-9 6 -20 0 -11 -3 -20 -6 -20 -3 0 -5 -16 -5 -35 0 -19 3 -35 7 -35 4 0 5 -7
2 -15 -8 -20 -11 -115 -4 -115 3 0 6 -9 6 -20 0 -11 -3 -20 -6 -20 -3 0 -5
-16 -5 -35 0 -19 4 -35 8 -35 5 0 5 -5 2 -10 -10 -16 -12 -111 -3 -116 4 -3 5
-13 0 -22 -9 -21 -9 -53 1 -70 5 -6 4 -12 0 -12 -9 0 -10 -46 -1 -56 3 -3 3
-17 -1 -32 -4 -15 -4 -42 0 -59 4 -18 4 -33 0 -33 -3 0 -6 -16 -6 -35 0 -19 3
-35 7 -35 4 0 5 -7 2 -15 -8 -20 -11 -115 -4 -115 3 0 6 -9 6 -20 0 -11 -3
-20 -6 -20 -3 0 -5 -16 -5 -35 0 -19 3 -35 7 -35 4 0 5 -7 2 -15 -8 -20 -11
-115 -4 -115 3 0 6 -9 6 -20 0 -11 -3 -20 -6 -20 -3 0 -5 -16 -5 -35 0 -19 4
-35 8 -35 5 0 5 -5 2 -10 -10 -16 -12 -111 -3 -116 4 -3 5 -13 0 -22 -9 -21
-9 -53 1 -70 5 -6 4 -12 0 -12 -9 0 -10 -46 -1 -56 3 -3 3 -17 -1 -32 -4 -15
-4 -42 0 -59 4 -18 4 -33 0 -33 -3 0 -6 -16 -6 -35 0 -19 3 -35 7 -35 4 0 5
-7 2 -15 -8 -20 -11 -115 -4 -115 3 0 6 -9 6 -20 0 -11 -3 -20 -6 -20 -3 0 -5
-16 -5 -35 0 -19 3 -35 7 -35 4 0 5 -7 2 -15 -8 -20 -11 -115 -4 -115 3 0 6
-9 6 -20 0 -11 -3 -20 -6 -20 -3 0 -5 -16 -5 -35 0 -19 4 -35 8 -35 5 0 5 -5
2 -10 -10 -16 -12 -111 -3 -116 4 -3 5 -13 0 -22 -9 -21 -9 -53 1 -70 5 -6 4
-12 0 -12 -9 0 -10 -46 -1 -56 3 -3 3 -17 -1 -32 -4 -15 -4 -42 0 -59 4 -18 4
-33 0 -33 -3 0 -6 -16 -6 -35 0 -19 3 -35 7 -35 4 0 5 -7 2 -15 -8 -20 -11
-115 -4 -115 3 0 6 -9 6 -20 0 -11 -3 -20 -6 -20 -3 0 -5 -16 -5 -35 0 -19 3
-35 7 -35 4 0 5 -7 2 -15 -9 -22 -10 -115 -2 -115 4 0 5 -7 1 -16 -3 -9 -6
-24 -7 -34 -1 -10 -64 -67 -151 -136 -82 -65 -154 -122 -160 -126 -55 -44
-239 -189 -265 -208 -18 -14 -42 -33 -54 -44 -11 -10 -46 -37 -76 -59 -30 -22
-57 -43 -60 -47 -3 -3 -25 -21 -50 -40 -25 -19 -52 -40 -60 -47 -8 -6 -35 -28
-60 -47 -78 -62 -74 -49 -74 -226 -1 -88 1 -160 4 -161 3 0 856 -1 1895 -2
1756 -2 1891 -1 1907 15 9 9 56 97 105 195 48 98 91 180 95 181 5 2 6 8 2 13
-3 5 0 9 7 9 8 0 8 4 -1 15 -7 9 -15 13 -17 11 -3 -2 -23 2 -46 10 -22 8 -53
17 -69 19 -15 3 -47 12 -71 19 -23 8 -80 24 -127 36 -47 12 -92 24 -100 27 -8
4 -21 5 -27 4 -7 -1 -13 3 -13 9 0 6 -5 8 -10 5 -6 -4 -18 -1 -26 6 -8 6 -17
9 -20 6 -3 -3 -24 1 -47 9 -23 8 -82 26 -132 39 -49 13 -124 33 -165 45 -41
11 -82 22 -90 24 -8 2 -41 12 -74 21 -32 9 -66 19 -75 20 -9 2 -16 4 -16 5 0
1 -7 3 -15 5 -20 4 -188 50 -270 74 -36 11 -78 23 -95 27 -16 4 -37 9 -45 11
-8 2 -21 5 -27 5 -7 1 -13 6 -13 11 0 5 -6 7 -12 4 -7 -2 -23 -1 -34 4 l-21 7
0 1590 c0 1516 1 1591 18 1595 9 3 22 0 28 -6 6 -6 11 -7 11 -1 0 10 82 10 99
-1 6 -3 11 -2 11 2 0 7 83 9 115 3 6 -1 15 -2 20 -1 26 5 125 2 134 -4 6 -3
11 -2 11 2 0 10 94 8 110 -2 5 -3 10 -2 10 2 0 5 20 8 45 8 25 0 45 -4 45 -8
0 -5 5 -5 12 -1 11 7 69 9 93 4 6 -1 12 -2 15 -1 15 6 219 3 229 -3 6 -4 11
-4 11 1 0 9 84 8 99 -2 6 -3 11 -2 11 2 0 7 83 9 115 3 6 -1 15 -2 20 -1 26 5
125 2 134 -4 6 -3 11 -2 11 2 0 10 94 8 110 -2 5 -3 10 -2 10 2 0 5 20 8 45 8
25 0 45 -4 45 -8 0 -5 5 -5 12 -1 31 20 118 -2 118 -29 0 -11 36 -84 101 -207
11 -19 19 -40 19 -47 0 -6 3 -13 8 -15 4 -1 77 -142 162 -313 85 -170 160
-313 165 -317 6 -4 6 -8 1 -8 -5 0 -4 -6 2 -12 5 -7 47 -87 92 -178 46 -91 84
-167 86 -169 1 -1 99 45 217 103 l214 107 -1 489 c-1 270 3 490 7 490 5 0 5 5
1 12 -10 16 -11 468 -1 468 5 0 5 5 1 12 -10 16 -12 179 -2 201 5 9 5 17 1 17
-4 0 -8 56 -8 125 0 69 4 125 8 125 5 0 5 5 1 12 -10 16 -11 468 -1 468 5 0 5
5 1 12 -10 16 -12 179 -2 201 5 9 5 17 1 17 -10 0 -9 212 1 228 4 7 3 12 -1
12 -5 0 -9 12 -9 28 1 27 0 27 -61 27 -34 0 -65 3 -68 7 -4 4 -17 4 -29 0 -26
-9 -128 -8 -142 1 -17 10 -46 -21 -78 -83 -16 -30 -34 -62 -40 -70 -6 -8 -16
-24 -22 -35 -56 -103 -80 -144 -95 -167 -11 -14 -19 -33 -19 -41 0 -9 -4 -17
-8 -19 -8 -3 -38 -53 -93 -153 -17 -33 -39 -71 -49 -85 -9 -14 -27 -46 -41
-72 -13 -27 -27 -48 -31 -48 -5 0 -8 -6 -8 -13 0 -7 -16 -40 -36 -73 -19 -32
-51 -86 -69 -119 -60 -110 -177 -310 -187 -322 -6 -7 -7 -13 -2 -13 5 0 4 -4
-1 -8 -6 -4 -16 -18 -23 -32 l-13 -25 -844 0 -845 0 0 1697 c0 1351 3 1698 13
1699 36 3 2925 4 2942 1 11 -2 30 -20 43 -40 37 -62 46 -75 65 -96 9 -11 17
-25 17 -32 0 -7 4 -14 8 -16 5 -1 70 -95 145 -208 75 -113 140 -209 145 -215
4 -5 17 -25 27 -42 11 -18 23 -33 27 -33 4 0 8 -4 8 -9 0 -14 72 -121 81 -121
5 0 8 -3 7 -7 -2 -5 38 -68 87 -141 50 -73 95 -142 101 -153 6 -11 21 -31 32
-44 11 -13 18 -26 15 -29 -4 -3 -1 -6 5 -6 7 0 12 -7 12 -15 0 -8 5 -15 10
-15 6 0 10 -6 10 -14 0 -8 4 -16 8 -18 11 -4 92 -126 92 -138 0 -5 3 -10 8
-12 9 -4 15 -12 191 -275 78 -117 143 -213 145 -213 2 0 66 21 142 46 76 26
144 47 151 48 7 1 16 5 20 10 4 4 8 560 8 1237 0 1086 -2 1229 -15 1228 -8 0
-139 -43 -290 -96z"/>
<path d="M111 30899 c-57 -114 -103 -211 -103 -216 0 -6 207 -84 215 -80 2 0
33 -10 117 -41 8 -3 21 -6 28 -8 8 -1 21 -6 30 -10 9 -4 26 -9 36 -11 11 -2
24 -7 30 -12 6 -5 27 -12 46 -16 19 -4 40 -10 45 -14 6 -3 12 -6 15 -6 6 -1
80 -25 100 -32 8 -4 18 -5 23 -5 4 1 7 -2 7 -7 0 -5 6 -8 13 -7 17 1 341 -107
348 -117 3 -5 10 -8 15 -8 23 2 44 -12 45 -30 1 -10 2 -25 3 -31 1 -7 -2 -21
-6 -30 -6 -12 -5 -18 2 -18 8 0 8 -6 0 -20 -8 -14 -8 -20 0 -20 8 0 8 -6 0
-20 -8 -14 -8 -20 0 -20 6 0 8 -4 5 -10 -11 -18 -14 -50 -4 -55 5 -4 5 -14 -1
-26 -7 -12 -7 -19 -1 -19 7 0 7 -9 1 -25 -6 -16 -6 -25 0 -25 6 0 6 -9 1 -23
-5 -13 -5 -30 0 -39 6 -11 5 -19 -1 -23 -7 -4 -7 -12 0 -25 7 -13 7 -21 0 -25
-6 -4 -7 -13 -2 -23 9 -19 8 -54 -2 -71 -4 -6 -2 -11 4 -11 8 0 8 -6 0 -20 -8
-14 -8 -20 0 -20 8 0 8 -6 0 -20 -8 -14 -8 -20 0 -20 7 0 7 -7 -1 -22 -7 -13
-11 -25 -9 -28 13 -23 18 -50 9 -50 -6 0 -6 -6 0 -18 6 -11 6 -24 0 -35 -7
-11 -6 -17 1 -17 7 0 8 -6 1 -18 -6 -11 -6 -24 0 -34 6 -11 6 -19 -1 -23 -7
-4 -7 -12 0 -25 7 -13 7 -21 0 -25 -6 -4 -7 -13 -2 -23 9 -19 8 -54 -2 -71 -4
-6 -2 -11 4 -11 8 0 8 -6 0 -20 -8 -14 -8 -20 0 -20 8 0 8 -6 0 -20 -8 -14 -8
-20 0 -20 7 0 7 -7 -1 -22 -7 -13 -12 -23 -12 -23 0 0 5 -10 11 -22 7 -13 8
-24 3 -28 -6 -3 -6 -17 -1 -35 5 -18 5 -30 0 -30 -6 0 -5 -11 0 -26 6 -14 7
-23 2 -21 -4 3 -7 -19 -7 -49 0 -30 3 -54 6 -54 4 0 3 -15 -1 -34 -4 -18 -3
-40 1 -49 6 -9 5 -18 0 -21 -6 -4 -6 -18 -1 -36 5 -18 5 -30 0 -30 -6 0 -5
-11 0 -26 6 -14 7 -23 2 -21 -4 3 -7 -19 -7 -49 0 -30 3 -54 6 -54 4 0 3 -15
-1 -34 -4 -18 -3 -40 1 -49 6 -9 5 -18 0 -21 -6 -4 -6 -18 -1 -36 5 -18 5 -30
0 -30 -6 0 -5 -11 0 -26 6 -14 7 -23 2 -21 -4 3 -7 -19 -7 -49 0 -30 3 -54 6
-54 4 0 3 -15 -1 -34 -4 -18 -3 -40 1 -49 6 -9 5 -18 0 -21 -6 -4 -6 -18 -1
-36 5 -18 5 -30 0 -30 -6 0 -5 -11 0 -26 6 -14 7 -23 2 -21 -4 3 -7 -19 -7
-49 0 -30 2 -54 5 -54 7 0 4 -66 -5 -79 -3 -6 -1 -11 5 -11 8 0 8 -6 0 -20 -8
-14 -8 -20 0 -20 8 0 8 -6 0 -20 -8 -14 -8 -20 0 -20 7 0 7 -7 -1 -22 -7 -13
-11 -25 -9 -28 13 -23 18 -50 9 -50 -6 0 -6 -6 0 -18 6 -11 6 -24 0 -35 -7
-11 -6 -17 1 -17 7 0 8 -6 1 -17 -6 -11 -6 -24 0 -35 6 -10 5 -19 -1 -23 -7
-4 -7 -12 0 -25 7 -13 7 -21 0 -25 -6 -4 -7 -13 -2 -23 9 -19 8 -54 -2 -71 -4
-6 -2 -11 4 -11 8 0 8 -6 0 -20 -8 -14 -8 -20 0 -20 8 0 8 -6 0 -20 -8 -14 -8
-20 0 -20 6 0 8 -4 5 -10 -11 -18 -14 -50 -4 -55 5 -4 5 -14 -1 -26 -7 -12 -7
-19 -1 -19 7 0 7 -9 1 -25 -6 -16 -6 -25 0 -25 6 0 6 -9 1 -23 -5 -13 -5 -30
0 -39 6 -11 5 -19 -1 -23 -7 -4 -7 -12 0 -25 7 -13 7 -21 0 -25 -6 -4 -7 -13
-2 -23 9 -19 8 -54 -2 -71 -4 -6 -2 -11 4 -11 8 0 8 -6 0 -20 -8 -14 -8 -20 0
-20 8 0 8 -6 0 -20 -8 -14 -8 -20 0 -20 7 0 7 -7 -1 -22 -7 -13 -11 -25 -9
-28 13 -23 18 -50 9 -50 -6 0 -6 -6 0 -18 6 -11 6 -24 0 -35 -7 -11 -6 -17 1
-17 7 0 8 -6 1 -18 -6 -11 -6 -24 0 -34 6 -11 6 -19 -1 -23 -7 -4 -7 -12 0
-25 7 -13 7 -21 0 -25 -6 -4 -7 -13 -2 -23 9 -19 8 -54 -2 -71 -4 -6 -2 -11 4
-11 8 0 8 -6 0 -20 -8 -14 -8 -20 0 -20 8 0 8 -6 0 -20 -8 -14 -8 -20 0 -20 6
0 8 -4 5 -10 -11 -18 -14 -50 -4 -55 5 -4 5 -14 -1 -26 -7 -12 -7 -19 -1 -19
7 0 7 -9 1 -25 -6 -16 -6 -25 0 -25 6 0 6 -9 1 -23 -5 -13 -5 -30 0 -39 6 -11
5 -19 -1 -23 -7 -4 -7 -12 0 -25 7 -13 7 -21 0 -25 -6 -4 -7 -13 -2 -23 9 -19
8 -54 -2 -71 -4 -6 -2 -11 4 -11 8 0 8 -6 0 -20 -8 -14 -8 -20 0 -20 8 0 8 -6
0 -20 -8 -14 -8 -20 0 -20 7 0 7 -7 -1 -22 -7 -13 -11 -25 -9 -28 13 -23 18
-50 9 -50 -6 0 -6 -6 0 -18 6 -11 6 -24 0 -35 -7 -11 -6 -17 1 -17 7 0 8 -6 1
-18 -6 -11 -6 -24 0 -34 6 -11 6 -19 -1 -23 -7 -4 -7 -12 0 -25 7 -13 7 -21 0
-25 -6 -4 -7 -13 -2 -23 9 -19 8 -54 -2 -71 -4 -6 -2 -11 4 -11 8 0 8 -6 0
-20 -8 -14 -8 -20 0 -20 8 0 8 -6 0 -20 -8 -14 -8 -20 0 -20 7 0 8 -6 1 -17
-5 -10 -10 -20 -12 -23 -1 -3 3 -15 9 -27 7 -13 8 -24 3 -28 -6 -3 -6 -17 -1
-35 5 -18 5 -30 0 -30 -6 0 -5 -11 0 -26 6 -14 7 -23 2 -21 -4 3 -7 -19 -7
-49 0 -30 3 -54 6 -54 4 0 3 -15 -1 -34 -4 -18 -3 -40 1 -49 6 -9 5 -18 0 -21
-6 -4 -6 -18 -1 -36 5 -18 5 -30 0 -30 -6 0 -5 -11 0 -26 6 -14 7 -23 2 -21
-4 3 -7 -19 -7 -49 0 -30 3 -54 6 -54 4 0 3 -15 -1 -34 -4 -18 -3 -40 1 -49 6
-9 5 -18 0 -21 -6 -4 -6 -18 -1 -36 5 -18 5 -30 0 -30 -6 0 -5 -11 0 -26 6
-14 7 -23 2 -21 -4 3 -7 -19 -7 -49 0 -30 3 -54 6 -54 4 0 3 -15 -1 -34 -4
-18 -3 -40 1 -49 6 -9 5 -18 0 -21 -6 -4 -6 -18 -1 -36 5 -18 5 -30 0 -30 -6
0 -5 -11 0 -26 6 -14 7 -23 2 -21 -4 3 -7 -19 -7 -49 0 -30 2 -54 5 -54 7 0 4
-55 -4 -68 -3 -6 -2 -13 4 -17 7 -4 7 -12 0 -26 -8 -13 -7 -19 0 -19 8 0 8 -6
0 -20 -8 -14 -8 -20 0 -20 6 0 8 -5 4 -12 -4 -7 -7 -26 -6 -43 2 -24 -4 -36
-29 -54 -17 -13 -39 -30 -48 -38 -9 -8 -45 -37 -81 -65 -67 -51 -104 -80 -170
-133 -53 -43 -96 -76 -165 -129 -33 -25 -67 -51 -75 -58 -8 -7 -41 -34 -75
-60 -33 -27 -66 -53 -73 -59 -7 -6 -66 -52 -130 -102 -64 -50 -123 -97 -129
-103 -7 -7 -18 -14 -24 -16 -13 -4 -20 -311 -7 -331 4 -7 482 -10 1615 -9 884
0 1618 1 1630 1 17 1 29 16 53 66 17 35 30 68 30 71 -1 4 2 10 7 13 4 3 38 65
74 138 60 118 70 156 43 154 -10 -1 -69 16 -99 29 -11 5 -110 39 -220 76 -110
37 -265 89 -345 116 -80 27 -152 51 -160 54 -8 2 -53 17 -100 34 -47 17 -106
38 -131 45 l-46 15 0 3250 0 3250 56 43 c31 23 58 44 61 48 3 3 23 18 45 35
22 16 54 41 70 56 17 16 33 28 36 28 3 0 17 9 30 21 13 12 43 35 66 52 24 17
43 34 43 39 0 4 4 8 10 8 10 0 37 20 72 53 10 9 22 17 27 17 5 0 11 3 13 8 2
4 28 26 58 50 30 23 65 50 76 60 12 9 32 24 44 32 12 8 28 20 34 25 9 9 91 75
121 98 5 4 44 34 85 66 l75 59 -1 164 0 163 -1635 1 -1635 0 -103 -207z"/>
<path d="M38039 28518 c-313 -156 -729 -358 -739 -358 -5 0 -10 -4 -10 -9 0
-5 -10 -13 -22 -16 -13 -4 -103 -47 -200 -95 -98 -49 -178 -86 -178 -83 0 3
-6 0 -14 -6 -20 -16 -106 -61 -106 -55 0 3 -13 -4 -29 -15 -16 -12 -36 -21
-44 -21 -9 0 -17 -3 -19 -7 -1 -5 -25 -19 -53 -32 -57 -28 -53 -26 -82 -36
-13 -4 -23 -11 -23 -16 0 -5 -3 -8 -7 -7 -10 3 -186 -84 -194 -95 -3 -4 -5
-80 -5 -168 l1 -161 40 -23 c43 -24 196 -113 260 -151 22 -13 69 -41 105 -61
36 -20 67 -40 70 -43 3 -4 20 -13 38 -21 17 -8 32 -17 32 -21 0 -5 4 -8 10 -8
5 0 39 -18 75 -40 36 -22 69 -40 74 -40 5 0 14 -7 21 -15 7 -8 16 -12 21 -9 5
3 9 0 9 -5 0 -6 4 -11 9 -11 5 0 46 -22 90 -50 44 -27 85 -50 91 -50 13 0 11
168 15 -1405 1 -742 5 -1375 8 -1405 5 -53 28 -192 46 -275 17 -75 50 -176 84
-255 6 -14 11 -27 11 -31 3 -15 73 -147 88 -163 10 -11 18 -24 18 -29 0 -9 47
-76 100 -141 69 -87 228 -227 330 -291 83 -53 247 -129 320 -150 146 -41 219
-57 340 -72 76 -10 418 -10 510 0 136 15 321 61 340 86 3 3 43 38 90 76 47 39
96 80 110 91 14 12 48 41 75 63 28 23 66 55 85 71 19 17 45 38 57 47 12 10 32
27 45 38 12 11 50 42 83 69 33 27 68 57 77 65 18 17 19 18 111 94 106 88 110
92 127 107 9 8 52 44 95 80 113 92 126 103 145 120 9 8 37 32 63 53 25 21 52
43 59 50 26 24 113 92 118 92 3 0 5 -246 6 -546 0 -300 3 -549 6 -555 4 -5
395 -9 1020 -8 l1013 0 17 34 c9 18 22 38 27 43 6 6 11 19 11 28 0 9 7 22 15
29 9 7 13 15 11 18 -3 3 3 17 13 31 15 22 32 55 35 71 1 3 8 16 16 30 8 14 15
27 15 30 1 3 13 29 29 58 15 30 26 55 24 57 -8 6 -81 37 -178 74 -58 22 -118
46 -135 52 -16 7 -32 13 -35 14 -11 4 -46 17 -65 25 -82 33 -162 63 -172 63
-7 0 -13 4 -13 9 0 4 -3 7 -7 6 -5 -1 -25 6 -47 15 -21 9 -42 17 -47 17 -5 0
-17 4 -27 9 -18 9 -23 11 -151 62 l-85 34 0 2550 -1 2550 -200 1 c-119 0 -208
-4 -220 -10 -11 -6 -23 -9 -27 -8 -5 1 -8 -3 -8 -8 0 -5 -3 -9 -7 -8 -5 1 -59
-23 -120 -54 -62 -32 -113 -54 -113 -50 0 4 -4 3 -8 -3 -11 -15 -89 -55 -107
-55 -9 0 -18 -7 -21 -15 -4 -8 -11 -12 -16 -9 -6 4 -13 3 -17 -2 -7 -10 -92
-54 -103 -54 -4 0 -31 -14 -60 -31 -29 -17 -55 -31 -58 -31 -3 0 -115 -54
-250 -120 -622 -307 -892 -438 -900 -438 -11 0 -12 -13 -11 -160 0 -186 0
-190 16 -190 8 0 15 -3 15 -8 0 -4 17 -15 38 -25 20 -10 51 -26 67 -37 17 -10
54 -31 83 -47 28 -15 52 -31 52 -35 0 -4 6 -8 13 -8 7 0 36 -15 65 -34 28 -19
52 -32 52 -29 0 3 8 -1 18 -9 9 -9 33 -24 52 -33 19 -10 37 -21 40 -24 3 -3
30 -19 60 -35 30 -16 62 -35 70 -42 9 -7 32 -20 53 -29 20 -8 37 -20 37 -25 0
-6 6 -10 13 -10 7 0 46 -20 86 -45 40 -25 77 -45 82 -45 5 0 9 -4 9 -9 0 -5 8
-11 18 -13 18 -5 18 -56 18 -1245 -1 -1088 -3 -1241 -16 -1254 -36 -35 -208
-169 -218 -169 -5 0 -12 -7 -16 -15 -3 -8 -10 -15 -16 -15 -6 0 -18 -6 -25
-12 -26 -23 -39 -33 -112 -81 -40 -26 -77 -47 -82 -47 -5 0 -11 -3 -13 -7 -9
-22 -338 -173 -338 -156 0 3 -6 1 -12 -5 -12 -9 -185 -55 -253 -67 -37 -7
-108 -16 -155 -20 -93 -10 -348 -3 -389 9 -9 3 -32 8 -51 11 -154 25 -309 118
-388 232 -62 89 -121 252 -137 378 -6 43 -10 59 -18 72 -4 6 -3 14 3 18 6 4 7
12 3 18 -8 14 -13 62 -17 198 -1 58 -6 111 -10 117 -4 7 -4 12 1 12 10 0 10
91 -1 108 -4 7 -3 12 2 12 9 0 7 51 -3 77 -2 7 0 15 4 17 5 3 6 18 4 33 -2 16
-4 33 -4 38 5 110 4 165 -2 165 -5 0 -5 6 -1 12 11 17 11 128 1 128 -5 0 -5 6
0 13 10 16 10 37 1 64 -4 12 -4 25 1 27 5 3 6 18 4 33 -2 16 -4 34 -3 41 0 13
1 113 0 135 0 6 1 23 3 37 2 14 -1 31 -6 38 -6 7 -6 12 0 12 10 0 10 60 -1 78
-4 7 -3 12 2 12 9 0 7 51 -3 77 -2 7 0 15 4 17 5 3 6 18 4 33 -2 16 -4 33 -4
38 5 110 4 165 -2 165 -5 0 -5 6 -1 12 11 17 11 128 1 128 -5 0 -5 6 0 13 10
16 10 37 1 64 -4 12 -4 25 1 27 5 3 6 18 4 33 -2 16 -4 33 -4 38 0 6 2 22 4
38 2 15 0 30 -5 33 -5 3 -5 11 0 17 4 7 7 23 5 37 -4 29 -4 23 -1 123 2 42 -1
77 -5 77 -5 0 -5 6 -1 12 11 17 11 128 1 128 -5 0 -5 6 0 13 10 16 10 37 1 64
-4 12 -4 25 1 27 5 3 6 18 4 33 -2 16 -4 34 -3 41 0 13 1 113 0 135 0 6 1 23
3 37 2 14 -1 31 -6 38 -6 7 -6 12 0 12 10 0 10 60 -1 78 -4 7 -3 12 2 12 9 0
7 51 -3 77 -2 7 0 15 4 17 5 3 6 18 4 33 -2 16 -4 33 -4 38 5 110 4 165 -2
165 -5 0 -5 6 -1 12 11 17 11 128 1 128 -5 0 -5 6 0 13 10 16 10 37 1 64 -4
12 -4 25 1 27 5 3 6 18 4 33 -2 16 -4 34 -3 41 0 13 1 113 0 135 0 6 1 23 3
37 2 14 -1 31 -6 38 -6 7 -6 12 0 12 10 0 10 60 -1 78 -4 7 -3 12 2 12 9 0 7
51 -2 77 -3 6 -2 14 2 17 7 8 10 76 2 77 -3 1 -95 2 -206 3 l-201 1 -114 -57z"/>
<path d="M6409 28504 c-564 -278 -745 -366 -748 -364 -2 1 -7 -2 -10 -7 -3 -4
-22 -16 -41 -25 -19 -9 -177 -87 -351 -172 -173 -86 -320 -156 -326 -156 -6 0
-13 -3 -15 -7 -1 -5 -32 -21 -68 -38 -36 -16 -67 -32 -70 -35 -3 -3 -17 -11
-32 -17 -16 -7 -28 -21 -29 -30 0 -10 -1 -85 -1 -166 0 -146 0 -149 23 -161
13 -7 42 -24 64 -37 22 -14 47 -29 55 -33 8 -4 24 -12 35 -19 23 -14 281 -167
307 -182 47 -28 215 -127 228 -135 44 -27 153 -90 156 -90 3 0 22 -12 44 -26
l40 -27 0 -1517 0 -1517 -117 -94 c-64 -52 -135 -107 -158 -123 -22 -16 -42
-32 -45 -35 -7 -8 -96 -80 -131 -106 -21 -16 -203 -158 -267 -209 -7 -6 -21
-19 -30 -28 -9 -10 -20 -18 -24 -18 -5 0 -16 -8 -26 -17 -10 -10 -33 -29 -52
-43 -18 -14 -38 -30 -44 -35 -6 -6 -22 -18 -35 -27 -23 -16 -23 -20 -25 -183
l-1 -166 23 4 c12 2 25 0 28 -5 3 -5 12 -4 20 3 11 9 14 8 14 -2 0 -9 3 -10
11 -2 6 6 23 8 44 3 18 -4 39 -4 46 1 7 4 20 4 29 -1 9 -5 22 -5 30 0 8 5 18
6 23 3 10 -6 115 -8 121 -2 3 2 48 2 101 -1 53 -3 98 -3 100 0 2 3 56 3 120 0
64 -3 118 -3 120 0 2 3 56 3 120 0 64 -3 118 -3 120 0 2 3 56 3 120 0 64 -3
118 -3 120 0 2 3 56 3 120 0 64 -3 118 -3 120 0 2 3 74 3 160 0 86 -3 158 -3
160 0 2 3 56 3 120 0 64 -3 118 -3 120 0 2 3 56 3 120 0 64 -3 118 -3 120 0 2
3 56 3 120 0 64 -3 118 -3 120 0 2 3 56 3 120 0 64 -3 119 -3 121 -1 2 2 38 3
79 2 55 -2 79 2 90 12 8 8 11 17 8 21 -4 3 -2 6 4 6 6 0 14 10 18 23 4 12 8
24 9 27 1 3 8 16 16 30 7 14 40 79 73 145 33 66 62 122 66 125 4 3 7 14 6 24
0 15 -17 26 -75 48 -41 16 -84 32 -95 37 -11 5 -31 13 -45 19 -14 6 -97 38
-185 72 -88 33 -169 65 -180 69 -11 5 -47 19 -80 31 -33 12 -73 28 -90 35 -16
7 -64 25 -105 40 -103 39 -104 40 -102 130 1 41 3 78 3 83 1 4 0 12 -1 17 -2
10 -1 208 1 222 1 4 1 13 0 18 -3 14 -3 1088 -1 1100 1 6 1 15 0 20 -2 11 -1
208 1 222 1 4 0 13 -1 18 -2 10 -1 208 1 222 1 4 0 13 -1 18 -2 11 -1 208 1
222 1 4 1 13 0 18 -2 9 -3 930 -2 978 1 9 8 17 16 17 9 0 18 7 21 15 4 8 10
15 15 15 8 0 35 20 64 48 8 6 18 12 22 12 5 0 18 8 29 18 10 9 39 30 64 47 25
16 48 34 52 40 5 7 8 7 8 0 0 -7 3 -7 8 0 10 14 89 65 101 65 5 0 11 4 13 9 4
12 239 141 256 141 6 0 12 5 12 11 0 6 7 9 15 5 8 -3 15 -2 15 2 0 6 109 54
130 58 3 0 12 3 20 7 22 9 113 38 130 42 8 2 44 10 80 19 36 8 79 17 95 20 17
3 41 8 55 11 92 19 398 27 495 13 28 -4 61 -9 75 -11 191 -29 366 -150 443
-307 20 -41 37 -81 37 -88 0 -6 5 -12 10 -12 6 0 9 -3 8 -7 -1 -5 6 -42 16
-83 10 -41 20 -86 22 -100 19 -113 28 -196 28 -277 1 -40 3 -73 6 -73 8 0 4
-585 -4 -598 -3 -6 -3 -13 2 -16 5 -3 7 -17 6 -33 -5 -53 -5 -78 -2 -150 2
-40 0 -73 -4 -73 -3 0 -3 -12 1 -27 4 -16 6 -44 5 -63 -4 -59 -4 -82 -3 -180
0 -52 0 -106 0 -120 -1 -14 -1 -41 1 -60 1 -20 -1 -43 -5 -53 -3 -9 -3 -17 1
-17 4 0 7 -19 6 -42 -5 -80 -5 -93 -2 -128 1 -20 -1 -43 -5 -53 -3 -9 -3 -17
2 -17 9 0 8 -51 -3 -68 -4 -7 -4 -12 1 -12 4 0 7 -44 5 -97 -3 -113 -3 -107 0
-153 1 -20 -1 -43 -5 -53 -3 -9 -3 -17 1 -17 4 0 7 -19 6 -42 -5 -80 -5 -93
-2 -128 1 -20 -1 -43 -5 -53 -3 -9 -3 -17 2 -17 9 0 8 -51 -3 -68 -4 -7 -4
-12 1 -12 6 0 7 -178 3 -525 0 -5 1 -26 2 -45 1 -20 -1 -43 -5 -53 -3 -9 -3
-17 1 -17 4 0 7 -19 6 -42 -5 -80 -5 -93 -2 -128 1 -20 -1 -43 -5 -53 -3 -9
-3 -17 2 -17 9 0 8 -51 -3 -68 -4 -7 -4 -12 1 -12 10 0 9 -322 -1 -338 -4 -7
-3 -12 2 -12 5 0 8 -10 8 -22 -1 -22 3 -23 107 -28 60 -3 110 -3 112 0 2 3 56
3 120 0 64 -3 118 -3 120 0 2 3 56 3 120 0 64 -3 118 -3 120 0 2 3 56 3 120 0
64 -3 118 -3 120 0 2 3 56 3 120 0 64 -3 118 -3 120 0 2 3 56 3 120 0 64 -3
118 -3 120 0 2 3 56 3 120 0 64 -3 118 -3 120 0 2 3 56 3 120 0 64 -3 119 -3
121 -1 2 2 34 3 72 2 l68 -2 19 38 c10 21 19 40 20 43 7 22 20 48 33 63 8 9
12 17 9 17 -3 0 19 47 49 105 30 58 51 105 47 105 -5 0 -2 4 6 9 8 5 16 21 18
36 3 17 0 24 -7 20 -5 -3 -10 -1 -10 4 0 6 -6 11 -14 11 -7 0 -73 24 -147 54
-74 30 -165 66 -204 81 -38 14 -83 32 -100 40 -16 7 -73 29 -125 50 -52 20
-104 40 -115 45 -11 5 -47 19 -80 31 -33 12 -64 25 -70 29 -5 4 -27 13 -47 19
l-38 13 -1 1751 c0 964 -2 1766 -4 1782 -3 17 -7 57 -10 90 -10 101 -11 109
-18 135 -4 14 -9 37 -12 53 -10 56 -16 77 -25 102 -5 14 -7 25 -4 25 2 0 0 8
-5 18 -6 11 -12 32 -15 47 -3 16 -10 33 -16 39 -5 5 -10 16 -10 23 0 7 -13 42
-30 78 -16 36 -30 70 -30 75 0 6 -3 10 -7 10 -5 0 -19 23 -32 50 -14 28 -29
50 -33 50 -4 0 -8 5 -8 12 0 33 -204 265 -296 335 -63 49 -143 103 -153 103
-5 0 -11 4 -13 8 -11 28 -269 133 -398 162 -30 7 -62 15 -70 18 -8 2 -28 6
-45 8 -16 2 -43 6 -60 9 -117 19 -390 25 -525 11 -74 -8 -207 -29 -245 -40 -5
-1 -30 -8 -55 -15 -43 -12 -80 -36 -153 -96 -7 -6 -32 -26 -57 -45 -54 -42
-78 -61 -94 -75 -6 -6 -31 -26 -56 -45 -25 -19 -46 -38 -48 -42 -2 -5 -8 -8
-14 -8 -6 0 -16 -6 -22 -13 -6 -8 -54 -47 -106 -88 -52 -40 -100 -78 -106 -84
-7 -5 -24 -19 -39 -29 -14 -11 -34 -27 -44 -35 -10 -9 -33 -27 -51 -41 -18
-14 -38 -30 -44 -35 -6 -6 -40 -33 -76 -60 -36 -28 -67 -52 -70 -55 -3 -3 -27
-23 -55 -45 -27 -22 -55 -44 -62 -50 -6 -5 -24 -20 -40 -32 -84 -64 -111 -85
-138 -107 -16 -14 -50 -42 -75 -61 -61 -49 -68 -55 -120 -95 -25 -19 -54 -43
-65 -53 -27 -25 -55 -40 -56 -30 -2 19 -8 50 -13 68 -4 17 -28 110 -41 165 -4
15 -72 280 -80 310 -17 66 -47 188 -49 200 -2 8 -6 22 -9 30 -3 8 -8 33 -12
55 -4 22 -10 45 -15 50 -4 6 -10 26 -12 45 -3 19 -20 91 -38 160 -18 69 -34
132 -35 140 -2 8 -4 15 -5 15 -1 0 -3 7 -5 15 -2 8 -8 35 -15 60 -6 25 -12 51
-12 58 -1 6 -5 12 -8 12 -4 0 -68 -30 -141 -66z"/>
<path d="M20357 28474 c-1 -1 -51 -5 -110 -8 -60 -4 -114 -9 -120 -11 -7 -3
-30 -7 -52 -9 -22 -3 -56 -8 -75 -12 -19 -4 -44 -8 -55 -9 -11 -1 -21 -4 -22
-5 -2 -1 -6 -3 -10 -4 -66 -15 -90 -20 -98 -22 -5 -1 -12 -3 -15 -4 -3 -1 -12
-3 -20 -5 -57 -11 -313 -100 -355 -123 -16 -9 -32 -16 -35 -15 -25 6 -423
-199 -542 -279 -31 -21 -60 -38 -64 -38 -3 0 -23 -13 -44 -30 -21 -16 -43 -30
-49 -30 -6 0 -11 -3 -11 -8 0 -4 -18 -18 -40 -32 -22 -14 -40 -28 -40 -33 0
-4 -4 -5 -10 -2 -5 3 -10 2 -10 -3 0 -5 -27 -28 -60 -52 -33 -24 -60 -47 -60
-52 0 -4 -5 -8 -11 -8 -7 0 -22 -11 -35 -26 -13 -14 -24 -23 -24 -20 0 15
-296 -276 -390 -384 -30 -34 -60 -68 -65 -74 -6 -6 -26 -31 -45 -56 -19 -25
-45 -56 -57 -70 -13 -14 -23 -28 -23 -32 0 -3 -6 -13 -13 -20 -24 -24 -167
-236 -167 -247 0 -6 -4 -11 -10 -11 -5 0 -10 -4 -10 -10 0 -5 -17 -38 -39 -73
-37 -61 -161 -309 -161 -322 0 -4 -6 -21 -14 -38 -17 -39 -41 -100 -41 -107
-1 -3 -9 -30 -20 -60 -19 -56 -20 -59 -28 -95 -3 -11 -10 -40 -17 -65 -7 -25
-14 -52 -15 -60 -2 -8 -4 -15 -5 -15 -1 0 -3 -9 -5 -20 -1 -11 -6 -36 -9 -55
-19 -97 -26 -150 -30 -212 -2 -25 -6 -50 -9 -55 -7 -11 -1 -508 7 -553 3 -19
7 -52 8 -72 1 -21 5 -38 9 -38 4 0 5 -8 3 -17 -4 -15 8 -90 41 -258 3 -16 15
-64 26 -105 11 -41 23 -84 25 -95 10 -42 13 -50 14 -52 2 -2 3 -7 4 -12 0 -5
4 -13 9 -17 4 -4 7 -14 7 -22 0 -23 110 -296 123 -304 7 -4 9 -8 4 -8 -8 0 83
-178 126 -247 15 -24 27 -47 27 -53 0 -5 4 -10 9 -10 5 0 14 -13 21 -30 7 -16
16 -30 20 -30 3 0 13 -12 21 -27 8 -16 22 -37 31 -47 10 -11 30 -38 45 -60 15
-23 35 -48 43 -56 9 -8 28 -31 44 -50 83 -104 243 -254 385 -362 42 -32 81
-62 88 -68 7 -5 17 -10 23 -10 5 0 10 -4 10 -9 0 -5 14 -14 30 -21 17 -7 30
-16 30 -21 0 -5 5 -9 10 -9 6 0 27 -10 48 -23 72 -45 171 -95 176 -89 3 3 6
-1 6 -8 0 -7 3 -11 6 -8 3 4 35 -8 72 -24 64 -29 252 -94 296 -103 12 -2 22
-4 24 -6 1 -1 10 -2 20 -3 9 -1 26 -5 37 -9 11 -3 35 -9 53 -12 17 -3 46 -7
62 -10 68 -11 88 -14 145 -21 124 -16 543 -8 615 11 8 2 31 6 50 9 19 3 69 12
110 21 41 9 84 17 95 19 12 1 25 5 31 9 11 6 59 18 82 19 6 1 12 4 12 8 0 4 6
7 13 7 23 0 212 67 219 78 4 5 8 7 8 3 0 -9 95 31 235 98 38 19 76 34 82 34 7
0 13 4 13 9 0 5 15 14 33 22 17 7 44 21 60 31 15 11 27 16 27 11 0 -4 4 -3 8
3 4 5 27 22 52 35 104 59 130 75 235 146 137 94 176 120 195 136 8 7 35 28 60
47 24 19 57 46 72 60 15 14 48 43 74 65 101 85 356 349 402 416 8 13 19 26 23
29 3 3 30 37 60 75 29 39 55 72 58 75 3 3 11 12 16 21 6 9 39 58 75 110 36 52
70 103 76 114 6 11 34 58 61 105 74 128 179 350 165 350 -4 0 -2 4 3 8 10 7
52 117 60 155 2 9 7 22 10 27 3 5 8 19 11 30 2 11 6 29 9 41 2 11 7 29 10 39
3 10 7 27 9 37 2 10 9 36 15 58 9 37 14 58 25 125 9 53 19 127 20 160 1 20 5
40 8 45 7 13 3 472 -6 550 -3 33 -8 78 -10 100 -2 22 -7 54 -10 70 -3 17 -12
71 -20 120 -9 50 -23 116 -31 148 -8 32 -13 63 -9 68 3 5 1 9 -4 9 -6 0 -13
16 -16 35 -4 19 -16 60 -27 92 -11 32 -22 69 -25 82 -3 14 -8 29 -12 35 -4 6
-7 13 -8 16 -1 7 -13 37 -42 110 -15 36 -26 68 -24 72 1 5 -2 8 -8 8 -5 0 -10
6 -10 13 -1 26 -168 337 -182 337 -4 0 -8 9 -8 19 0 11 -4 21 -8 23 -5 2 -27
31 -50 64 -78 117 -165 220 -291 344 -69 69 -141 136 -160 150 -18 14 -43 33
-55 43 -38 34 -174 127 -184 127 -6 0 -12 3 -14 8 -6 13 -87 62 -103 62 -8 0
-15 4 -15 9 0 9 -100 61 -118 61 -7 0 -12 5 -12 10 0 5 -3 9 -7 8 -5 -1 -24 5
-43 14 -39 18 -169 69 -185 73 -5 1 -21 7 -35 12 -24 10 -81 24 -97 25 -5 0
-15 4 -23 8 -8 4 -33 11 -55 14 -22 4 -56 11 -75 16 -19 4 -60 12 -90 15 -30
4 -64 9 -75 11 -49 10 -389 25 -398 18z m-337 -908 c46 -4 104 -13 130 -21 8
-2 29 -7 46 -10 85 -14 343 -115 352 -137 2 -4 8 -8 14 -8 5 0 29 -13 53 -30
24 -16 46 -30 50 -30 4 0 12 -6 19 -12 7 -7 26 -22 41 -33 51 -35 219 -208
268 -275 27 -36 55 -73 63 -83 8 -9 14 -22 14 -27 0 -6 4 -10 9 -10 5 0 11 -8
15 -17 6 -19 30 -63 59 -107 9 -14 17 -32 17 -40 0 -8 4 -16 9 -18 11 -4 79
-149 120 -258 18 -47 36 -94 41 -105 10 -28 37 -114 46 -150 4 -16 8 -32 9
-35 5 -16 17 -58 19 -71 2 -8 6 -25 9 -39 4 -14 9 -37 12 -52 3 -16 7 -40 10
-55 3 -16 8 -39 11 -53 3 -14 8 -43 11 -65 3 -22 6 -49 8 -60 1 -11 3 -20 4
-20 1 0 4 -22 6 -50 2 -27 7 -75 10 -105 11 -104 14 -186 15 -385 0 -215 -7
-360 -26 -500 -2 -16 -6 -46 -9 -65 -4 -36 -12 -75 -15 -75 -1 0 -3 -16 -5
-35 -4 -33 -8 -50 -20 -100 -3 -11 -7 -28 -9 -37 -13 -57 -19 -79 -25 -88 -3
-5 -6 -12 -6 -15 -1 -10 -28 -86 -40 -115 -14 -32 -27 -67 -30 -75 -5 -21 -65
-126 -101 -178 -24 -35 -44 -68 -44 -73 0 -6 -4 -7 -10 -4 -5 3 -10 1 -10 -5
0 -11 -113 -126 -160 -164 -33 -27 -158 -99 -195 -114 -16 -6 -43 -17 -60 -23
-16 -7 -33 -13 -37 -14 -5 -2 -10 -4 -13 -5 -6 -3 -8 -4 -80 -20 -69 -15 -84
-17 -180 -27 -112 -11 -311 -5 -395 12 -13 2 -42 7 -63 10 -22 4 -50 10 -63
15 -13 5 -24 7 -24 4 0 -2 -8 0 -18 5 -11 6 -30 12 -43 15 -29 5 -86 26 -152
55 -26 11 -50 20 -54 20 -3 0 -9 3 -12 8 -3 4 -26 19 -51 32 -145 78 -302 216
-432 378 -33 42 -138 202 -138 211 0 5 -7 15 -15 22 -8 7 -13 16 -10 20 3 5 1
12 -5 15 -6 4 -33 52 -59 108 -65 139 -74 160 -106 252 -15 44 -30 87 -33 95
-3 8 -6 18 -7 23 -2 4 -3 8 -5 10 -1 1 -3 9 -5 17 -5 20 -24 91 -30 110 -2 8
-11 47 -20 85 -9 39 -18 79 -20 90 -3 11 -7 36 -10 55 -3 19 -8 49 -11 65 -3
17 -8 44 -10 60 -2 17 -5 48 -8 70 -3 22 -7 68 -10 103 -4 34 -9 92 -12 130
-8 77 -7 469 0 552 2 30 8 84 11 120 4 36 8 86 10 112 2 26 6 51 8 55 3 4 8
28 11 53 6 38 12 78 15 88 3 7 30 118 36 146 8 35 47 151 58 171 6 11 12 26
13 32 4 22 85 177 110 211 14 17 22 32 19 32 -4 0 1 7 9 16 9 9 29 32 44 52
36 47 119 125 184 173 29 21 58 43 65 49 7 5 16 10 20 10 5 0 28 11 53 24 91
48 246 92 364 103 33 3 62 7 64 8 4 3 258 -4 312 -9z"/>
<path d="M46337 28474 c-1 -1 -31 -5 -67 -8 -53 -5 -150 -27 -270 -61 -43 -12
-135 -50 -138 -57 -2 -4 -10 -8 -17 -8 -20 0 -187 -88 -290 -154 -49 -31 -99
-62 -109 -69 -11 -6 -29 -20 -40 -29 -11 -10 -23 -18 -27 -18 -3 0 -22 -13
-40 -30 -19 -16 -37 -30 -41 -30 -4 0 -13 -6 -20 -13 -7 -6 -38 -32 -68 -57
-30 -25 -61 -52 -70 -60 -8 -8 -26 -24 -40 -35 -52 -43 -238 -244 -300 -325
-19 -25 -37 -47 -40 -50 -19 -17 -182 -273 -185 -290 -3 -13 -30 -67 -41 -80
-7 -8 -14 -24 -16 -35 -1 -11 -5 -22 -8 -25 -5 -5 -29 -64 -34 -85 -1 -5 -9
-30 -16 -55 -69 -234 -55 -464 42 -670 56 -118 161 -256 298 -390 72 -70 168
-155 203 -179 12 -8 24 -18 27 -21 3 -3 21 -17 40 -30 19 -13 37 -27 40 -31 3
-5 17 -14 30 -21 14 -8 64 -39 112 -71 48 -31 90 -57 92 -57 5 0 108 -62 116
-70 3 -3 23 -14 45 -26 43 -22 121 -66 170 -95 17 -10 51 -29 76 -42 25 -14
63 -35 85 -47 49 -28 176 -96 229 -123 22 -11 52 -29 68 -39 15 -11 27 -16 27
-12 0 4 8 1 18 -7 27 -22 60 -39 77 -39 8 0 15 -3 15 -8 0 -4 15 -13 33 -21
17 -8 34 -17 37 -20 3 -3 37 -22 75 -41 39 -19 81 -42 95 -51 14 -9 50 -29 80
-46 121 -66 156 -86 170 -98 8 -7 35 -23 60 -36 25 -13 49 -28 55 -32 5 -4 55
-38 110 -74 55 -36 102 -69 103 -74 2 -5 10 -9 18 -9 8 0 17 -7 20 -15 4 -8
11 -15 18 -15 19 -1 162 -132 211 -194 17 -21 36 -45 43 -52 6 -7 12 -15 12
-18 0 -4 11 -24 25 -46 14 -22 23 -40 21 -40 -2 0 5 -24 16 -52 41 -107 33
-269 -17 -370 -13 -25 -21 -49 -18 -52 4 -3 2 -6 -4 -6 -5 0 -15 -11 -21 -25
-13 -28 -132 -155 -146 -155 -5 0 -17 -10 -27 -22 -11 -11 -19 -18 -19 -14 0
4 -15 -4 -33 -18 -19 -15 -41 -26 -50 -26 -10 0 -17 -4 -17 -8 0 -7 -78 -37
-122 -48 -5 -1 -9 -2 -10 -4 -3 -2 -13 -4 -63 -14 -175 -37 -407 -23 -640 37
-51 14 -156 52 -214 78 -35 16 -70 29 -77 29 -7 0 -14 3 -16 8 -1 4 -27 18
-55 31 -29 14 -53 28 -53 33 0 4 -4 8 -10 8 -28 0 -272 170 -378 264 -54 47
-220 214 -273 271 -115 129 -298 383 -398 552 l-43 72 -202 0 -203 0 0 -825 0
-825 39 -20 c21 -11 38 -17 38 -13 0 4 6 2 13 -4 18 -14 289 -104 357 -117 8
-2 15 -4 15 -5 0 -1 14 -4 30 -6 17 -3 51 -11 78 -19 26 -8 47 -12 47 -10 0 3
12 0 28 -6 15 -6 41 -12 57 -15 17 -2 50 -8 75 -13 111 -22 264 -50 269 -49 3
1 13 -2 21 -5 8 -3 35 -8 60 -11 45 -5 99 -13 155 -22 29 -5 48 -7 136 -18 24
-3 64 -8 89 -12 25 -4 52 -7 60 -7 8 0 21 -4 28 -10 8 -6 12 -6 12 2 0 7 4 10
9 6 6 -3 36 -8 68 -10 32 -3 74 -7 93 -10 89 -11 271 -19 440 -19 181 -1 264
5 331 24 18 5 35 8 37 5 3 -2 17 2 33 11 16 8 29 13 29 10 0 -7 180 60 255 95
39 18 72 33 75 34 15 5 66 31 70 36 3 4 28 18 55 33 106 56 358 223 385 256 3
3 25 21 50 40 75 58 99 80 224 205 119 119 149 152 247 277 27 35 53 68 59 75
5 7 10 16 10 22 0 5 4 11 8 13 18 7 171 275 178 313 1 6 16 51 32 100 17 50
34 113 38 140 3 28 8 53 10 57 10 15 5 207 -6 268 -11 66 -53 198 -73 235 -6
11 -10 23 -9 27 1 3 -5 12 -13 18 -8 7 -15 17 -15 22 0 9 -43 74 -80 121 -76
97 -269 287 -292 287 -4 0 -8 8 -8 17 0 9 -3 14 -6 10 -5 -5 -26 9 -58 39 -20
19 -246 168 -351 231 -189 114 -405 230 -805 435 -118 60 -219 114 -225 119
-5 5 -17 9 -27 9 -10 0 -18 5 -18 10 0 6 -5 10 -10 10 -6 0 -68 32 -138 71
-70 40 -147 83 -172 97 -25 14 -69 40 -98 59 -29 18 -56 33 -61 33 -5 0 -11 4
-13 8 -1 4 -21 19 -43 32 -44 27 -196 134 -235 165 -84 69 -220 219 -220 244
0 6 -3 11 -8 11 -8 0 -38 61 -34 73 1 4 -3 7 -8 7 -5 0 -10 7 -10 15 0 8 -4
23 -9 33 -19 33 -30 108 -29 195 0 128 34 241 100 329 27 37 139 148 150 148
3 0 13 6 20 13 21 21 159 87 169 81 5 -3 9 0 9 6 0 6 5 8 10 5 6 -3 16 -3 23
2 6 4 19 9 27 10 8 1 35 6 60 10 90 15 328 8 418 -12 12 -3 32 -7 45 -10 106
-23 314 -114 435 -191 214 -137 426 -337 606 -569 43 -55 84 -108 92 -118 8
-9 14 -22 14 -27 0 -6 5 -10 10 -10 6 0 10 -7 10 -15 0 -8 5 -15 10 -15 6 0
10 -6 10 -14 0 -8 4 -16 8 -18 17 -7 204 -324 219 -370 3 -10 10 -18 17 -19
16 -1 346 -1 377 0 l26 1 0 308 c0 170 3 314 7 320 4 7 4 12 -1 12 -10 0 -9
453 1 469 4 6 4 11 -1 11 -9 0 -9 467 0 477 4 3 3 11 -2 17 -10 12 -11 16 -11
43 0 9 -3 14 -6 10 -4 -3 -21 1 -38 10 -17 9 -35 18 -41 19 -5 1 -50 18 -100
37 -49 19 -106 38 -125 42 -19 4 -41 12 -47 17 -7 6 -13 8 -13 5 0 -3 -15 -1
-32 5 -35 10 -113 30 -163 41 -5 2 -16 6 -22 10 -7 5 -13 6 -13 4 0 -3 -17 -1
-37 4 -21 5 -49 12 -63 15 -13 3 -56 12 -95 20 -38 9 -88 18 -110 20 -21 3
-42 7 -46 10 -4 2 -24 6 -45 10 -22 3 -50 7 -64 10 -22 3 -100 16 -180 29 -14
2 -45 6 -70 10 -25 3 -56 8 -70 10 -14 3 -48 7 -76 10 -28 2 -71 6 -95 9 -93
12 -138 16 -249 22 -112 6 -349 11 -353 8z"/>
<path d="M52357 28474 c-1 -1 -29 -4 -62 -7 -198 -19 -434 -102 -665 -234 -69
-40 -185 -116 -188 -124 -2 -5 -9 -9 -15 -9 -7 0 -24 -10 -39 -23 -14 -12 -39
-31 -54 -42 -50 -36 -138 -109 -188 -155 -93 -85 -286 -285 -286 -296 0 -3
-12 -18 -27 -34 -16 -15 -35 -38 -43 -50 -22 -32 -88 -123 -99 -136 -5 -6 -16
-24 -25 -40 -9 -16 -28 -47 -41 -69 -23 -37 -86 -163 -106 -210 -30 -72 -42
-108 -60 -175 -11 -41 -23 -97 -26 -125 -10 -74 -6 -253 7 -305 6 -25 13 -58
16 -75 3 -16 10 -37 15 -46 4 -9 5 -19 2 -23 -3 -3 -1 -6 5 -6 7 0 12 -5 12
-12 0 -17 51 -122 64 -130 6 -4 8 -8 4 -8 -11 0 72 -117 117 -166 118 -128
203 -209 305 -292 36 -29 70 -56 76 -61 63 -51 298 -201 414 -264 30 -16 62
-36 71 -43 8 -8 21 -14 27 -14 6 0 17 -6 24 -12 7 -7 29 -21 48 -30 19 -10 64
-34 100 -53 36 -20 83 -46 105 -58 22 -12 48 -28 58 -36 9 -8 17 -11 17 -6 0
4 6 3 13 -3 7 -6 58 -34 112 -63 211 -109 310 -162 323 -171 6 -6 12 -7 12 -2
0 5 4 4 8 -1 4 -6 32 -23 62 -40 30 -16 73 -39 95 -52 22 -13 55 -30 73 -38
17 -8 32 -20 32 -25 0 -6 4 -9 8 -7 9 2 219 -120 240 -140 7 -7 19 -13 27 -13
7 0 15 -3 17 -7 5 -11 97 -73 108 -73 6 0 10 -3 10 -8 0 -4 18 -18 40 -32 22
-14 40 -28 40 -32 0 -5 5 -8 10 -8 6 0 25 -12 43 -27 49 -43 187 -184 187
-193 0 -5 6 -15 13 -22 24 -25 54 -84 78 -154 19 -55 23 -88 22 -164 -1 -83
-6 -145 -12 -145 -2 0 -4 -11 -7 -24 -2 -14 -9 -30 -14 -36 -5 -7 -7 -15 -3
-18 3 -4 0 -7 -7 -7 -7 0 -11 -3 -7 -6 7 -7 -33 -73 -71 -116 -54 -61 -68 -74
-107 -103 -22 -16 -42 -32 -45 -35 -3 -3 -18 -12 -35 -20 -16 -8 -37 -20 -46
-28 -9 -7 -26 -14 -38 -15 -11 -1 -21 -4 -21 -7 0 -5 -54 -22 -120 -37 -59
-14 -198 -28 -265 -27 -97 1 -243 16 -282 28 -10 3 -36 8 -58 12 -22 3 -42 10
-43 15 -2 5 -7 7 -12 4 -7 -4 -63 12 -110 32 -8 3 -23 8 -32 9 -67 14 -413
197 -426 227 -2 4 -8 7 -13 7 -8 0 -111 75 -201 148 -93 75 -352 350 -440 467
-5 6 -26 32 -48 60 -22 27 -40 53 -40 57 0 4 -9 18 -20 30 -10 13 -20 28 -22
33 -1 6 -6 15 -10 20 -5 6 -17 21 -28 34 -11 13 -20 30 -20 38 0 7 -4 13 -9
13 -5 0 -14 14 -21 30 -7 17 -16 30 -21 30 -5 0 -9 4 -9 10 0 5 -12 29 -27 54
l-27 45 -203 0 -203 0 0 -825 c0 -817 0 -826 20 -831 11 -3 20 -10 20 -15 0
-5 4 -7 9 -4 5 4 11 2 13 -2 3 -9 302 -111 347 -118 14 -3 40 -9 56 -14 17 -5
41 -12 55 -15 14 -2 45 -9 70 -15 56 -13 83 -19 115 -25 14 -3 35 -7 48 -10
51 -10 165 -32 212 -40 17 -2 55 -9 85 -15 30 -5 71 -12 90 -15 19 -3 46 -7
60 -10 14 -2 45 -7 70 -10 25 -3 56 -7 69 -10 13 -2 41 -5 62 -7 22 -1 39 -4
39 -7 0 -4 19 -7 43 -8 43 -2 89 -7 192 -18 263 -29 674 -40 790 -22 105 17
271 65 373 108 23 10 44 19 47 19 10 2 203 102 240 125 22 13 53 32 69 41 31
17 207 137 235 159 9 8 48 39 86 70 179 143 450 419 523 534 9 14 25 35 34 45
10 11 18 25 18 32 0 7 4 14 8 16 19 7 172 285 172 312 0 3 5 17 12 33 11 28
15 39 22 71 3 9 5 17 6 17 2 0 7 22 15 60 3 17 8 37 11 45 14 38 13 251 -1
326 -17 90 -54 206 -67 215 -5 3 -9 9 -9 13 2 14 -49 104 -95 166 -52 71 -218
240 -304 310 -30 25 -57 47 -60 50 -3 3 -21 17 -40 30 -19 13 -37 27 -40 30
-3 4 -54 39 -115 78 -60 39 -114 75 -120 80 -5 4 -29 17 -52 29 -58 31 -87 47
-93 54 -6 6 -108 62 -250 137 -58 31 -107 58 -110 61 -3 3 -111 59 -240 124
-205 103 -391 199 -455 235 -125 69 -302 171 -323 184 -15 10 -34 21 -42 24
-8 4 -29 17 -46 30 -17 13 -34 20 -38 17 -3 -4 -6 -1 -6 5 0 7 -7 12 -15 12
-8 0 -15 4 -15 8 0 5 -12 15 -27 23 -16 8 -32 18 -38 22 -5 4 -46 34 -91 66
-83 60 -174 145 -231 216 -27 33 -94 146 -99 165 0 3 -3 12 -7 20 -55 142 -53
312 6 455 12 28 26 53 31 57 6 4 7 8 2 8 -9 0 52 78 99 125 73 73 223 151 327
170 13 3 46 9 73 14 52 10 311 8 355 -3 14 -3 34 -8 45 -10 79 -17 122 -29
153 -42 21 -9 46 -17 57 -19 28 -6 241 -113 295 -149 47 -32 50 -34 89 -66 13
-11 27 -20 30 -20 3 0 20 -13 37 -28 17 -15 53 -45 79 -67 123 -102 338 -340
421 -465 13 -19 37 -54 54 -78 16 -23 30 -47 30 -52 0 -6 4 -10 9 -10 5 0 18
-16 28 -35 10 -19 50 -90 89 -158 39 -67 77 -137 85 -154 9 -21 21 -33 34 -34
96 -4 395 -3 396 1 1 3 2 374 3 824 1 794 1 820 -18 838 -10 9 -23 15 -28 12
-4 -3 -8 0 -8 7 0 7 -3 10 -6 6 -4 -3 -25 3 -48 15 -22 11 -43 21 -46 21 -3 0
-15 3 -28 8 -13 5 -29 9 -37 9 -8 0 -17 5 -20 10 -3 6 -16 10 -29 10 -12 0
-27 5 -34 12 -7 7 -12 9 -12 5 0 -3 -18 0 -40 8 -22 8 -40 12 -40 8 0 -3 -6
-1 -12 5 -7 5 -49 18 -93 28 -44 10 -83 19 -87 20 -5 1 -9 2 -10 4 -4 2 -24 6
-68 14 -19 4 -62 13 -95 21 -84 20 -126 28 -185 38 -14 2 -38 7 -55 10 -16 4
-46 9 -65 12 -19 3 -47 8 -61 10 -65 11 -106 17 -131 18 -16 1 -28 4 -28 7 0
3 -12 6 -27 6 -32 1 -136 13 -173 20 -14 3 -52 7 -85 9 -33 3 -73 7 -90 10
-67 9 -480 26 -488 19z"/>
</g>
</svg>
